<?xml version="1.0" standalone="no"?>
<!DOCTYPE svg PUBLIC "-//W3C//DTD SVG 20010904//EN"
 "http://www.w3.org/TR/2001/REC-SVG-20010904/DTD/svg10.dtd">
<svg version="1.0" xmlns="http://www.w3.org/2000/svg"
 width="1600.000000pt" height="1600.000000pt" viewBox="0 0 1600.000000 1600.000000"
 preserveAspectRatio="xMidYMid meet">
<metadata>
Created by potrace 1.11, written by Peter Selinger 2001-2013
</metadata>
<g transform="translate(0.000000,1600.000000) scale(0.100000,-0.100000)"
fill="#000000" stroke="none">
<path d="M7579 15995 c-3 -2 -47 -6 -99 -9 -52 -2 -95 -5 -95 -6 0 -1 -25 -3
-55 -5 -95 -6 -192 -15 -265 -25 -128 -17 -170 -22 -200 -25 -26 -2 -79 -11
-180 -30 -16 -3 -48 -8 -70 -11 -53 -8 -398 -78 -415 -84 -3 -1 -8 -2 -12 -1
-3 0 -30 -7 -60 -15 -29 -9 -64 -18 -78 -21 -14 -2 -59 -13 -100 -25 -41 -11
-79 -21 -85 -22 -5 -1 -37 -10 -70 -20 -33 -10 -67 -20 -75 -21 -8 -2 -15 -4
-15 -5 0 -1 -8 -3 -17 -6 -27 -6 -42 -10 -58 -17 -22 -8 -142 -47 -160 -51 -8
-2 -42 -14 -75 -26 -33 -12 -64 -22 -70 -23 -5 -2 -14 -5 -20 -8 -17 -10 -90
-33 -97 -31 -5 1 -8 -3 -8 -9 0 -5 -4 -8 -8 -5 -5 3 -26 -3 -48 -13 -71 -32
-148 -63 -186 -74 -21 -6 -38 -15 -38 -19 0 -4 -6 -8 -13 -8 -8 0 -27 -6 -43
-14 -25 -13 -78 -36 -94 -41 -117 -39 -576 -276 -850 -439 -136 -80 -305 -186
-327 -206 -7 -5 -16 -10 -22 -10 -5 0 -11 -3 -13 -7 -1 -5 -49 -39 -105 -78
-117 -80 -156 -107 -198 -138 -64 -48 -351 -272 -363 -284 -7 -6 -34 -29 -59
-50 -26 -21 -54 -45 -63 -53 -9 -8 -49 -44 -90 -80 -197 -174 -468 -444 -647
-645 -94 -106 -109 -124 -171 -200 -31 -38 -59 -72 -62 -75 -22 -22 -229 -292
-323 -420 -65 -90 -185 -270 -179 -270 4 0 2 -4 -4 -8 -16 -10 -179 -275 -280
-455 -86 -152 -228 -431 -296 -582 -65 -143 -88 -196 -88 -200 0 -2 -10 -28
-23 -57 -13 -29 -31 -71 -39 -93 -9 -22 -26 -64 -37 -93 -88 -215 -265 -775
-296 -930 -2 -9 -11 -46 -20 -82 -10 -36 -19 -76 -21 -90 -1 -14 -5 -34 -7
-45 -15 -62 -29 -123 -33 -145 -2 -14 -9 -47 -14 -75 -6 -27 -13 -66 -16 -85
-3 -19 -7 -44 -9 -55 -2 -11 -6 -33 -9 -50 -2 -16 -9 -59 -16 -95 -7 -36 -13
-76 -15 -90 -19 -149 -37 -306 -41 -355 -3 -33 -7 -78 -9 -100 -15 -155 -20
-323 -20 -690 0 -403 6 -582 19 -604 4 -5 2 -12 -4 -16 -7 -4 -7 -12 0 -25 5
-10 9 -29 8 -42 -1 -23 10 -162 16 -195 2 -10 7 -47 11 -83 3 -36 8 -76 10
-90 2 -14 7 -47 10 -75 3 -27 8 -57 10 -65 4 -14 11 -55 20 -120 1 -14 6 -41
10 -60 21 -111 36 -189 40 -220 3 -19 13 -64 21 -100 9 -36 17 -74 20 -85 2
-11 11 -47 19 -80 9 -33 17 -69 19 -80 3 -11 7 -30 10 -42 18 -79 122 -434
158 -538 46 -134 103 -295 119 -330 4 -11 24 -61 43 -111 174 -453 477 -1029
776 -1473 103 -154 172 -253 180 -261 3 -3 32 -41 64 -85 72 -97 189 -247 231
-295 16 -20 48 -57 70 -84 158 -193 448 -497 670 -701 59 -55 115 -107 124
-115 20 -18 199 -170 265 -225 27 -22 55 -46 62 -53 7 -6 15 -12 19 -12 4 0
13 -7 22 -16 23 -22 305 -232 398 -295 44 -30 82 -56 85 -59 12 -13 387 -250
395 -250 2 0 32 -17 66 -39 59 -35 169 -96 264 -145 22 -12 42 -24 43 -28 2
-5 8 -8 13 -8 6 0 85 -37 177 -83 92 -46 170 -84 174 -85 4 -2 29 -12 55 -24
27 -12 50 -22 53 -23 3 -1 16 -7 30 -13 156 -67 364 -152 383 -156 7 -2 19 -6
27 -9 26 -11 185 -69 195 -71 6 -1 15 -4 20 -7 6 -4 22 -9 37 -13 15 -3 40
-11 55 -18 15 -6 33 -12 38 -13 6 -2 44 -13 85 -26 41 -13 77 -24 80 -24 3 -1
32 -9 65 -19 33 -10 67 -20 75 -21 8 -2 60 -16 115 -30 55 -15 111 -29 124
-31 14 -3 28 -7 31 -9 4 -2 22 -7 41 -10 19 -3 75 -15 124 -27 50 -11 99 -22
110 -23 11 -2 31 -5 45 -8 56 -11 197 -37 230 -42 19 -3 47 -8 62 -11 15 -3
39 -7 55 -9 15 -2 43 -6 61 -10 18 -3 56 -7 85 -10 29 -2 63 -6 77 -9 45 -8
114 -16 185 -22 83 -6 149 -12 265 -21 115 -10 930 -10 1055 0 55 4 126 9 157
11 82 6 172 15 253 26 39 5 93 12 120 15 98 11 149 18 205 30 14 3 39 7 55 10
63 9 102 16 155 27 30 6 62 12 70 13 8 2 35 5 59 9 23 3 46 8 50 11 4 2 23 7
42 10 19 3 42 8 51 11 21 6 55 14 88 19 14 2 41 9 60 15 19 6 46 13 60 16 14
3 58 14 98 25 40 11 81 22 90 24 9 2 42 11 72 20 30 9 78 22 105 30 74 20 418
137 510 174 44 17 86 31 93 31 6 0 12 4 12 10 0 5 3 9 8 8 4 -2 23 4 42 11 96
38 323 137 385 168 39 19 70 33 70 32 0 -6 392 197 475 246 30 18 60 34 65 36
10 4 155 90 203 121 15 10 36 22 47 27 12 5 27 16 34 25 7 9 18 16 23 16 11 0
342 221 346 232 2 4 8 8 13 8 5 0 17 7 27 16 9 8 42 33 72 55 94 68 110 81
267 206 163 131 194 157 319 268 212 189 465 443 654 655 36 41 72 81 80 90 8
9 32 37 53 63 21 25 43 52 50 59 7 7 28 33 47 58 19 25 37 47 40 50 3 3 21 25
40 50 19 25 40 52 47 60 58 65 305 418 417 595 177 280 286 471 412 725 47 96
71 147 147 310 34 75 147 348 147 358 0 4 6 19 14 33 11 21 55 142 61 169 1 3
7 18 13 33 21 49 119 351 127 389 2 9 11 41 19 70 25 85 57 199 62 219 10 44
13 57 27 112 8 31 13 57 10 57 -3 0 0 7 7 15 7 8 10 15 7 15 -3 0 1 28 10 63
18 78 18 75 37 177 8 47 18 101 22 120 9 50 13 77 29 175 3 22 8 47 10 55 3 8
7 33 10 55 37 310 42 350 50 450 2 33 8 105 12 160 4 55 8 294 8 530 0 406 -6
599 -19 612 -3 3 -1 14 5 24 5 11 6 19 1 19 -4 0 -8 15 -8 33 -1 41 -13 174
-19 207 -2 14 -7 48 -9 75 -3 28 -8 66 -10 85 -3 19 -7 55 -10 80 -3 25 -8 54
-10 65 -9 45 -20 111 -22 130 -1 11 -5 36 -9 55 -15 78 -35 186 -39 210 -5 33
-16 81 -22 102 -3 10 -7 30 -10 45 -39 224 -254 940 -340 1130 -8 17 -14 34
-14 38 0 25 -300 696 -320 715 -3 3 -27 48 -53 100 -106 207 -238 431 -386
655 -58 88 -108 165 -110 170 -2 6 -7 12 -10 15 -4 3 -18 21 -31 40 -47 68
-225 306 -284 380 -91 112 -90 111 -101 124 -5 6 -46 54 -90 106 -44 52 -87
102 -95 110 -8 9 -55 61 -105 115 -178 194 -404 413 -645 625 -22 20 -204 170
-254 210 -10 8 -24 21 -31 28 -8 6 -18 12 -23 12 -6 0 -12 4 -14 9 -2 7 -115
94 -207 159 -13 9 -36 28 -52 40 -16 13 -29 21 -29 17 0 -3 -7 1 -17 10 -29
29 -512 345 -527 345 -2 0 -33 17 -67 38 -72 44 -180 104 -254 141 -27 14 -51
29 -53 34 -2 4 -7 7 -12 7 -4 0 -93 42 -196 92 -104 51 -191 93 -194 93 -3 1
-21 8 -40 17 -19 8 -80 34 -135 57 -55 23 -115 49 -133 57 -18 8 -88 34 -155
59 -67 25 -145 55 -172 65 -28 11 -57 20 -66 20 -8 0 -19 4 -25 8 -5 4 -36 16
-69 26 -59 18 -165 53 -195 63 -8 3 -22 7 -30 9 -8 1 -49 12 -90 24 -41 12
-138 37 -215 56 -77 20 -147 38 -155 41 -8 3 -24 7 -35 9 -11 1 -54 10 -95 19
-84 19 -254 51 -345 65 -79 13 -115 19 -142 25 -20 5 -42 8 -140 20 -21 2 -78
9 -128 15 -153 18 -167 20 -255 26 -47 3 -103 8 -125 10 -50 6 -971 15 -976 9z
m841 -795 c0 -3 28 -6 63 -6 116 -2 281 -17 492 -45 79 -10 99 -13 163 -24 17
-3 47 -7 65 -10 17 -3 43 -8 57 -10 66 -11 98 -17 135 -25 22 -5 58 -11 80
-14 83 -13 505 -119 665 -168 19 -6 44 -14 55 -19 11 -4 52 -17 90 -29 39 -11
79 -24 90 -30 11 -5 40 -16 65 -24 78 -26 202 -72 295 -111 50 -20 113 -46
140 -57 28 -11 55 -23 60 -27 6 -4 26 -14 45 -21 73 -28 545 -267 576 -291 6
-5 37 -23 70 -40 32 -17 66 -38 75 -45 8 -8 19 -14 23 -14 4 0 27 -13 51 -30
24 -16 48 -30 54 -30 6 0 11 -4 11 -10 0 -5 5 -10 11 -10 12 0 382 -248 425
-285 7 -5 24 -19 40 -30 24 -17 132 -101 188 -145 11 -8 36 -30 56 -47 20 -18
40 -30 44 -26 3 3 6 2 6 -4 0 -5 36 -40 80 -77 43 -37 92 -79 108 -94 16 -15
53 -49 83 -75 125 -113 360 -351 499 -506 36 -40 70 -78 76 -84 5 -7 47 -57
93 -112 46 -55 91 -110 101 -122 25 -29 190 -249 220 -293 14 -19 32 -43 41
-53 9 -9 22 -30 30 -45 8 -15 17 -29 20 -32 13 -11 129 -190 129 -199 0 -5 3
-11 8 -13 9 -4 119 -183 163 -266 10 -18 22 -38 27 -45 14 -17 175 -324 177
-337 0 -3 7 -16 15 -30 8 -14 15 -27 15 -30 1 -3 21 -45 45 -95 23 -49 43 -96
43 -102 0 -7 3 -13 6 -13 3 0 12 -15 20 -32 7 -18 24 -58 38 -88 14 -30 26
-62 28 -70 2 -8 14 -40 28 -70 13 -30 32 -75 40 -100 9 -25 32 -90 52 -145 47
-130 149 -456 172 -550 3 -11 8 -36 13 -55 4 -19 19 -80 33 -135 25 -98 75
-331 83 -390 4 -31 28 -166 38 -220 3 -16 8 -55 11 -85 3 -30 8 -68 10 -85 12
-84 31 -285 42 -438 8 -111 8 -788 0 -907 -11 -162 -18 -236 -32 -340 -4 -25
-8 -65 -10 -90 -7 -73 -23 -194 -30 -220 -2 -8 -7 -35 -10 -60 -10 -72 -14
-98 -41 -225 -13 -66 -26 -129 -28 -140 -11 -56 -79 -329 -97 -389 -11 -38
-22 -77 -24 -86 -2 -10 -11 -40 -20 -66 -9 -27 -18 -56 -20 -64 -15 -69 -152
-445 -228 -627 -92 -217 -108 -252 -210 -453 -55 -107 -106 -208 -115 -225
-36 -71 -215 -369 -224 -373 -5 -2 -8 -8 -8 -14 0 -6 -11 -26 -25 -44 -14 -18
-25 -35 -25 -38 0 -9 -254 -368 -314 -445 -28 -36 -56 -73 -63 -81 -21 -28
-236 -285 -242 -290 -3 -3 -42 -45 -86 -95 -92 -104 -367 -380 -473 -475 -40
-36 -85 -76 -100 -90 -87 -79 -368 -306 -451 -365 -23 -16 -55 -39 -69 -51
-15 -12 -65 -47 -112 -79 -47 -32 -91 -64 -98 -72 -7 -7 -19 -13 -27 -13 -7 0
-15 -3 -17 -8 -4 -9 -224 -152 -235 -152 -3 0 -14 -6 -22 -14 -9 -7 -36 -25
-61 -38 -25 -14 -69 -39 -97 -56 -95 -56 -445 -238 -471 -243 -4 -1 -27 -13
-52 -27 -25 -14 -45 -24 -45 -23 0 2 -25 -8 -55 -22 -30 -13 -75 -34 -100 -45
-61 -27 -329 -133 -360 -142 -14 -5 -77 -27 -140 -50 -63 -22 -122 -43 -131
-45 -9 -2 -47 -13 -85 -25 -38 -12 -76 -23 -84 -25 -8 -1 -44 -11 -80 -22 -66
-21 -341 -90 -430 -108 -14 -2 -54 -11 -90 -19 -36 -8 -81 -17 -100 -20 -19
-3 -47 -8 -63 -11 -33 -6 -131 -23 -172 -29 -16 -3 -55 -8 -85 -11 -30 -3 -66
-8 -80 -10 -87 -13 -111 -16 -160 -21 -30 -3 -80 -7 -110 -10 -30 -2 -77 -6
-105 -8 -216 -20 -693 -25 -920 -11 -60 3 -141 8 -180 11 -38 2 -88 6 -110 9
-22 3 -65 7 -95 10 -63 5 -115 12 -215 26 -38 5 -90 12 -115 15 -25 3 -52 7
-60 9 -22 6 -80 16 -115 20 -16 2 -30 4 -30 5 0 1 -11 3 -25 6 -14 2 -68 13
-120 24 -52 11 -104 22 -115 24 -11 3 -40 9 -65 16 -25 6 -55 13 -67 15 -11 1
-45 10 -75 18 -29 9 -68 19 -87 22 -19 3 -38 8 -43 11 -4 3 -16 7 -25 9 -10 2
-43 11 -73 20 -30 9 -63 18 -73 20 -26 6 -208 65 -232 75 -11 5 -56 21 -100
36 -75 25 -285 104 -330 124 -500 221 -698 323 -1025 523 -118 73 -351 225
-360 236 -3 4 -18 15 -35 25 -56 36 -338 249 -365 276 -3 3 -36 31 -75 62 -38
31 -84 70 -102 85 -182 161 -249 225 -415 393 -184 185 -254 262 -364 393 -27
31 -52 57 -56 57 -4 0 -8 5 -8 11 0 6 -24 39 -52 73 -29 33 -56 65 -60 71 -5
5 -27 35 -51 65 -24 30 -59 78 -78 105 -18 28 -37 52 -40 55 -13 11 -239 349
-239 358 0 5 -7 15 -15 22 -9 7 -32 40 -51 74 -19 34 -46 79 -60 101 -14 22
-27 48 -31 58 -3 9 -9 17 -14 17 -5 0 -9 4 -9 9 0 5 -16 38 -36 73 -99 172
-343 675 -359 738 0 3 -11 27 -23 54 -12 27 -22 51 -22 54 0 3 -16 46 -36 96
-30 75 -118 325 -128 361 -2 6 -6 24 -10 40 -4 17 -11 39 -16 50 -8 19 -32 99
-50 170 -5 17 -16 57 -25 90 -9 33 -18 67 -20 75 -2 8 -4 16 -4 18 -1 1 -1 4
-2 7 0 2 -7 33 -16 67 -38 163 -65 287 -70 328 -3 25 -9 50 -14 56 -5 6 -7 13
-4 16 3 3 0 29 -5 59 -16 85 -22 122 -34 204 -18 126 -26 193 -32 255 -2 30
-7 75 -9 100 -16 138 -29 450 -29 675 0 221 9 422 29 640 12 136 15 164 30
265 5 33 15 115 21 165 4 36 53 301 67 365 4 14 8 36 10 50 13 71 84 354 119
470 11 36 22 76 24 89 3 13 11 39 19 57 8 19 12 34 10 34 -2 0 17 57 42 128
24 70 45 132 46 137 2 8 19 53 57 150 78 202 156 378 261 590 135 274 149 299
262 490 40 66 78 132 86 148 7 15 17 27 22 27 5 0 9 5 9 11 0 8 183 288 213
324 4 6 36 48 70 95 34 47 66 90 72 96 5 7 19 24 30 40 20 28 142 180 160 200
6 6 29 33 52 60 23 27 51 60 63 74 154 180 488 514 675 675 32 28 63 55 69 60
11 10 159 131 184 150 7 6 21 17 30 26 45 42 438 324 538 386 10 7 60 37 109
68 144 90 177 109 291 173 176 97 364 193 364 185 0 -4 4 -3 8 4 7 11 349 170
382 177 3 1 66 26 140 55 111 44 428 157 465 165 6 2 37 11 70 21 33 10 65 20
70 21 6 1 42 11 80 23 39 12 81 24 95 26 14 2 48 10 75 19 28 8 66 18 85 21
19 3 43 8 52 11 9 3 27 7 40 9 13 3 43 9 68 15 25 5 56 12 70 14 14 3 68 13
120 24 52 11 113 23 135 26 22 3 54 8 70 11 78 13 100 16 148 21 29 2 84 9
122 14 39 5 95 12 125 15 30 3 78 7 105 10 28 3 102 7 165 10 63 4 116 8 117
9 6 5 713 2 713 -4z"/>
<path d="M5820 14260 c-14 -4 -83 -29 -155 -55 -71 -26 -136 -47 -142 -48 -7
0 -13 -4 -13 -9 0 -4 -6 -8 -14 -8 -27 0 -266 -104 -466 -202 -204 -101 -385
-205 -533 -305 -43 -29 -80 -53 -82 -53 -3 0 -13 -6 -22 -14 -10 -8 -52 -39
-93 -70 -41 -30 -79 -59 -85 -63 -5 -4 -35 -28 -65 -53 -30 -25 -63 -52 -73
-60 -104 -84 -369 -347 -457 -454 -30 -37 -64 -77 -75 -90 -53 -61 -65 -77
-65 -86 0 -5 -6 -13 -13 -17 -28 -17 -216 -298 -315 -472 -72 -127 -169 -326
-227 -466 -34 -82 -132 -350 -140 -385 -2 -8 -11 -40 -20 -70 -43 -144 -102
-383 -110 -440 -5 -37 -12 -75 -15 -75 -1 0 -3 -16 -6 -35 -2 -19 -8 -57 -14
-85 -5 -27 -12 -72 -15 -100 -3 -27 -7 -59 -9 -70 -2 -11 -7 -51 -10 -90 -4
-38 -9 -88 -12 -110 -5 -42 -15 -201 -14 -222 0 -7 0 -19 0 -25 0 -7 -2 -98
-3 -203 -2 -104 1 -198 5 -207 6 -12 5 -18 -2 -18 -6 0 -8 -4 -5 -10 3 -5 8
-51 10 -102 3 -51 7 -104 10 -118 2 -14 7 -52 10 -85 9 -90 15 -126 22 -138 4
-6 1 -7 -7 -2 -9 5 -11 4 -6 -3 7 -11 24 -99 51 -257 3 -22 16 -76 27 -120 11
-44 22 -89 24 -100 23 -118 155 -488 219 -615 18 -36 57 -114 87 -175 58 -117
106 -206 145 -267 12 -21 23 -40 23 -42 0 -7 94 -156 137 -219 81 -116 107
-152 112 -157 3 -3 19 -23 35 -45 94 -128 354 -404 462 -492 21 -17 49 -39 61
-50 43 -36 59 -49 93 -73 19 -13 37 -27 40 -30 3 -3 28 -22 55 -41 28 -18 52
-36 55 -39 3 -3 14 -10 25 -17 11 -7 52 -31 90 -55 39 -23 117 -66 174 -95 57
-29 110 -58 118 -64 7 -6 13 -9 13 -5 0 4 18 -3 39 -14 47 -24 90 -40 246 -91
155 -52 300 -86 485 -114 71 -11 289 -20 367 -16 18 1 21 7 21 44 0 23 1 47 2
52 1 6 1 15 0 20 -3 11 -7 491 -14 1450 -3 376 -9 631 -15 664 -25 124 -123
308 -232 436 -94 109 -254 259 -423 395 -10 8 -23 20 -30 26 -6 6 -33 27 -61
48 -136 104 -431 395 -540 534 -5 7 -18 21 -27 30 -10 9 -18 22 -18 28 0 7 -4
14 -9 16 -20 7 -207 275 -267 383 -125 222 -210 417 -269 611 -13 45 -26 92
-29 105 -3 13 -10 44 -16 69 -16 63 -29 136 -35 195 -3 28 -7 61 -11 75 -3 14
-7 113 -9 220 -3 175 0 226 21 365 3 22 7 56 9 75 3 19 7 46 10 60 3 14 8 36
10 50 3 14 16 70 30 125 14 55 27 105 28 112 2 7 6 16 10 19 4 4 7 15 7 23 0
15 46 145 70 196 15 33 49 115 50 120 4 24 172 328 195 351 5 6 19 27 30 47
11 20 23 37 27 37 5 0 8 5 8 11 0 11 10 24 131 179 102 129 133 164 294 325
140 139 156 154 270 251 206 175 529 392 763 514 46 24 85 47 88 52 3 4 4 8 2
7 -2 0 -14 -4 -28 -9z"/>
<path d="M10186 14261 c5 -5 52 -31 104 -57 52 -26 97 -51 98 -56 2 -4 8 -6
13 -2 5 3 9 0 9 -5 0 -6 4 -11 9 -11 13 0 119 -66 251 -156 164 -111 200 -137
200 -146 0 -4 5 -8 11 -8 6 0 21 -9 33 -20 11 -11 50 -42 86 -70 101 -79 173
-145 304 -276 169 -168 252 -262 354 -399 28 -38 55 -75 59 -80 35 -46 93
-135 93 -143 0 -6 4 -12 8 -14 19 -7 144 -242 212 -398 77 -177 131 -354 175
-585 11 -53 18 -116 33 -262 9 -98 8 -331 -3 -428 -4 -38 -9 -81 -10 -95 -2
-14 -4 -25 -5 -25 -1 0 -3 -13 -5 -30 -5 -47 -44 -214 -66 -285 -11 -36 -22
-72 -24 -80 -8 -34 -58 -166 -66 -175 -5 -5 -9 -15 -9 -22 0 -16 -90 -204
-148 -307 -84 -150 -275 -431 -328 -481 -5 -5 -26 -31 -47 -56 -118 -149 -340
-365 -542 -527 -66 -53 -125 -101 -131 -107 -7 -5 -34 -28 -60 -50 -89 -73
-289 -279 -346 -355 -90 -122 -162 -268 -183 -375 -6 -30 -12 -514 -19 -1473
-1 -282 -6 -515 -9 -518 -4 -4 -2 -14 3 -24 5 -10 7 -20 4 -22 -6 -7 -7 -178
0 -185 6 -6 215 -5 291 2 52 5 169 21 218 30 81 15 107 21 201 46 45 12 87 22
94 22 6 0 12 5 12 10 0 6 3 8 6 4 6 -6 86 20 214 70 90 35 312 144 390 192 36
22 79 48 95 57 17 9 53 34 82 56 29 21 55 38 58 38 3 0 14 8 25 18 34 29 54
45 120 97 113 87 322 290 399 385 20 25 43 52 51 60 53 51 310 416 367 520 13
25 37 68 53 95 32 55 216 415 218 428 1 4 13 30 27 57 14 27 25 51 24 52 0 3
17 52 28 78 3 8 7 17 8 20 1 3 5 14 9 25 20 52 34 90 34 95 1 3 3 12 6 20 34
107 70 232 82 289 3 12 12 53 20 89 9 37 17 78 19 92 2 14 9 50 15 80 6 30 13
70 15 88 3 17 8 49 11 70 3 20 7 53 9 72 2 19 7 60 11 90 3 30 8 69 10 85 2
17 6 84 9 150 3 66 7 130 9 142 3 13 0 25 -5 28 -5 4 -6 11 -3 17 10 16 11 98
1 98 -5 0 -5 5 -1 11 14 24 1 350 -22 529 -3 25 -7 63 -9 85 -4 45 -12 103
-27 190 -5 33 -11 71 -13 85 -6 45 -16 94 -25 130 -5 19 -11 51 -14 70 -2 19
-7 42 -10 50 -3 8 -8 26 -10 40 -5 25 -57 218 -75 278 -5 18 -10 33 -10 35 0
4 -12 40 -28 82 -8 22 -15 42 -15 45 -1 11 -10 36 -19 52 -5 10 -9 22 -9 28 0
34 -116 304 -220 510 -142 283 -363 614 -550 825 -196 220 -339 358 -540 521
-136 110 -410 304 -430 304 -6 0 -10 5 -10 10 0 6 -4 10 -8 10 -5 0 -51 25
-103 56 -97 59 -409 220 -514 265 -98 43 -176 75 -240 99 -33 13 -79 31 -102
42 -24 10 -49 18 -56 18 -7 0 -32 9 -55 20 -23 11 -45 19 -49 19 -4 -1 -15 1
-23 4 -24 11 -102 37 -108 37 -3 0 -2 -4 4 -9z"/>
<path d="M6920 12418 c-30 -35 -60 -70 -67 -78 -8 -8 -34 -42 -58 -75 -25 -33
-49 -65 -54 -71 -25 -30 -169 -254 -164 -254 3 0 -1 -8 -9 -17 -33 -38 -228
-434 -243 -493 0 -3 -16 -43 -34 -90 -48 -121 -126 -370 -145 -460 -3 -14 -15
-63 -26 -110 -11 -47 -22 -98 -25 -115 -2 -16 -6 -39 -8 -50 -18 -79 -29 -193
-20 -198 4 -3 33 -8 63 -11 65 -8 78 -10 105 -20 11 -5 34 -12 50 -18 70 -24
177 -83 255 -144 55 -42 185 -168 249 -240 52 -59 224 -299 226 -314 0 -3 13
-24 28 -47 15 -24 27 -47 27 -53 0 -5 4 -10 9 -10 5 0 14 -15 21 -32 8 -18 18
-40 24 -48 25 -33 151 -315 161 -360 2 -8 13 -42 24 -75 21 -65 51 -175 57
-215 2 -14 9 -45 14 -70 5 -25 12 -58 14 -75 15 -98 19 -122 21 -145 1 -14 5
-43 9 -65 13 -79 29 -264 41 -490 22 -396 23 -1249 1 -1595 -2 -25 -7 -112
-11 -195 -9 -192 -11 -223 -20 -320 -4 -44 -9 -96 -10 -115 -1 -19 -5 -69 -9
-110 -4 -41 -9 -100 -11 -130 -5 -70 -16 -179 -20 -206 -2 -12 -6 -61 -10
-110 -4 -49 -9 -98 -12 -109 -2 -11 -6 -38 -8 -60 -2 -22 -8 -69 -14 -105 -6
-36 -13 -90 -16 -120 -3 -30 -8 -66 -10 -80 -2 -14 -6 -45 -10 -70 -3 -25 -8
-56 -10 -70 -6 -32 -12 -73 -20 -130 -3 -25 -12 -76 -20 -115 -8 -38 -16 -83
-19 -100 -3 -16 -12 -58 -20 -92 -9 -34 -18 -75 -21 -90 -9 -48 -12 -65 -48
-208 -32 -125 -45 -175 -92 -335 -7 -25 -17 -56 -23 -70 -5 -14 -10 -28 -11
-32 -1 -4 -4 -13 -6 -20 -2 -7 -15 -47 -29 -88 -51 -159 -115 -300 -154 -339
-30 -30 -42 -24 -93 43 -35 47 -149 264 -149 285 0 6 -5 11 -10 11 -6 0 -9 3
-8 7 5 17 -148 304 -217 408 -134 202 -269 323 -425 380 -61 23 -94 28 -177
30 -60 2 -125 -3 -160 -11 -32 -8 -69 -16 -83 -19 -14 -3 -36 -7 -50 -10 -13
-2 -42 -7 -65 -10 -22 -3 -51 -8 -65 -10 -23 -4 -113 -14 -170 -19 -14 -1 -30
-5 -36 -8 -5 -4 -16 -3 -24 2 -8 5 -21 5 -30 0 -17 -9 -779 -6 -940 4 -247 16
-489 98 -795 271 -73 41 -296 187 -353 232 -27 21 -62 47 -77 58 -16 11 -33
25 -39 30 -6 6 -31 26 -56 44 -25 19 -49 39 -55 45 -5 6 -32 29 -60 51 -64 51
-93 76 -174 151 -36 34 -79 73 -96 88 -62 57 -283 278 -369 370 -49 53 -91 94
-93 92 -2 -2 9 -28 25 -57 17 -30 43 -79 59 -109 16 -30 54 -98 83 -150 30
-52 61 -108 70 -125 24 -46 100 -176 125 -215 12 -19 55 -89 96 -155 40 -66
77 -121 81 -123 5 -2 8 -8 8 -14 0 -23 366 -537 437 -613 10 -11 28 -33 40
-48 63 -82 363 -397 377 -397 3 0 17 -12 33 -28 31 -29 53 -48 123 -102 25
-19 47 -38 48 -42 2 -5 9 -8 16 -8 7 0 21 -9 31 -20 10 -11 24 -20 32 -20 7 0
13 -4 13 -8 0 -5 10 -14 22 -20 13 -6 41 -23 63 -36 39 -24 141 -76 217 -110
57 -25 202 -70 268 -83 173 -33 414 -36 575 -7 62 11 70 13 75 14 3 1 10 3 15
4 6 1 30 8 55 15 25 7 52 14 60 16 29 6 235 83 295 110 105 47 248 120 318
163 37 22 67 38 67 34 -1 -44 -414 -432 -460 -432 -6 0 -10 -4 -10 -9 0 -5
-15 -16 -32 -25 -18 -9 -46 -25 -63 -36 -16 -10 -52 -30 -80 -44 -27 -14 -61
-32 -75 -40 -14 -7 -52 -25 -85 -39 -33 -14 -76 -32 -95 -40 -60 -26 -181 -63
-285 -87 -55 -13 -102 -25 -104 -26 -16 -12 207 -168 424 -297 135 -80 403
-217 545 -279 148 -65 184 -81 190 -82 3 -1 43 -17 90 -35 126 -50 397 -141
418 -141 10 0 22 -4 27 -9 10 -8 240 -74 263 -74 6 0 12 -4 12 -9 0 -5 4 -6
10 -3 5 3 33 -1 62 -9 29 -9 67 -18 83 -21 48 -9 77 -16 125 -26 25 -6 54 -12
65 -14 20 -4 247 -42 295 -50 14 -2 54 -7 89 -10 35 -3 67 -7 70 -9 3 -2 44
-7 91 -11 47 -4 93 -9 104 -11 51 -10 322 -18 581 -18 312 0 516 9 679 29 28
3 67 8 86 10 151 18 296 39 355 52 11 3 27 5 35 5 8 0 56 9 105 20 50 11 99
21 110 23 11 2 29 6 40 8 11 3 43 11 70 17 28 6 58 14 68 16 9 2 25 6 35 8
119 27 481 137 607 184 39 14 72 27 75 27 14 2 86 28 95 35 8 5 100 42 115 46
22 5 284 125 297 136 7 6 13 8 13 4 0 -7 343 168 382 195 14 11 29 19 32 19
18 0 382 236 424 275 l23 21 -39 2 c-42 3 -50 4 -123 21 -97 22 -259 91 -374
159 -71 41 -180 115 -183 123 -2 5 -8 9 -14 9 -33 0 -493 411 -519 465 -9 18
-9 19 4 3 8 -10 19 -18 26 -18 6 0 11 -4 11 -10 0 -5 5 -10 10 -10 6 0 32 -15
58 -32 56 -38 76 -50 157 -93 100 -53 125 -65 127 -63 2 1 24 -10 50 -25 40
-22 260 -99 322 -112 12 -2 32 -7 46 -10 103 -23 190 -31 305 -29 103 1 233
12 245 19 3 2 26 6 50 10 25 3 70 13 100 21 30 8 62 16 70 18 21 6 143 52 188
72 309 137 598 356 907 688 11 11 45 50 75 86 30 35 61 71 69 80 71 75 365
496 457 655 97 167 164 288 164 296 0 5 5 9 10 9 6 0 10 9 10 19 0 11 4 22 10
26 8 5 170 327 170 339 0 3 11 29 24 58 14 29 32 71 40 93 l15 40 -32 -39
c-17 -22 -68 -83 -112 -135 -274 -329 -613 -632 -920 -822 -38 -24 -73 -47
-76 -52 -3 -4 -13 -9 -21 -11 -9 -1 -22 -7 -29 -13 -26 -21 -224 -121 -329
-166 -100 -43 -294 -114 -334 -122 -10 -3 -44 -12 -75 -21 -31 -9 -67 -18 -81
-21 -35 -7 -54 -11 -60 -13 -3 -1 -8 -2 -12 -1 -4 0 -36 -6 -70 -13 -165 -37
-513 -54 -693 -33 -120 13 -254 33 -299 44 -28 6 -52 10 -111 17 -27 4 -57 8
-65 11 -97 29 -381 35 -500 10 -92 -18 -226 -72 -323 -129 -48 -28 -137 -121
-137 -142 0 -7 -3 -14 -7 -16 -5 -1 -21 -28 -36 -58 -39 -75 -131 -250 -177
-335 -21 -38 -62 -117 -93 -175 -158 -303 -162 -309 -197 -310 -21 0 -99 76
-185 181 -101 122 -243 400 -333 649 -11 30 -24 64 -28 75 -4 11 -8 22 -9 25
0 3 -9 30 -20 60 -10 30 -20 60 -21 65 -1 6 -10 37 -20 70 -26 87 -99 371
-107 415 -3 14 -12 54 -20 90 -23 96 -57 278 -72 385 -2 11 -10 58 -19 105
-15 85 -24 139 -31 195 -3 17 -7 46 -10 65 -3 19 -8 53 -11 75 -2 22 -7 57
-10 78 -2 21 -6 59 -9 85 -5 52 -15 134 -20 172 -2 14 -7 59 -10 100 -4 41 -8
91 -10 110 -3 19 -7 64 -10 100 -5 64 -9 120 -20 250 -7 87 -15 212 -22 345
-3 61 -7 112 -9 114 -2 2 -4 -83 -5 -190 0 -107 -2 -414 -5 -684 -2 -269 -6
-770 -8 -1111 -2 -342 -6 -626 -10 -633 -4 -6 -3 -11 1 -11 10 0 9 -52 0 -67
-3 -5 -2 -15 2 -22 5 -7 5 -28 1 -46 -4 -18 -4 -39 0 -46 5 -7 4 -23 -1 -36
-5 -12 -5 -23 -1 -23 4 0 6 -15 5 -32 -1 -18 -2 -33 -3 -33 -1 0 -3 -261 -5
-581 -3 -561 -4 -582 -25 -644 -25 -74 -60 -144 -92 -182 -23 -27 -82 -56
-105 -52 -7 1 -20 2 -28 3 -19 1 -101 76 -118 107 -32 59 -76 152 -83 174 -4
14 -8 1681 -9 3705 l-1 3680 -29 59 c-16 32 -50 79 -75 105 -65 67 -117 100
-364 230 -110 59 -157 93 -229 166 -124 127 -185 215 -279 405 -23 47 -43 88
-44 93 -1 4 -3 9 -4 12 -1 3 -3 8 -5 13 -1 4 -4 14 -8 22 -29 73 -57 181 -72
280 -13 83 -13 330 -1 380 3 14 8 36 10 50 2 14 9 45 16 70 7 25 13 52 15 60
8 37 38 115 75 189 37 74 105 189 119 201 11 9 83 110 78 110 -2 0 -28 -28
-57 -62z"/>
<path d="M7918 12338 c-9 -7 -21 -35 -27 -63 -11 -55 -42 -192 -67 -295 -15
-60 -22 -94 -28 -128 -1 -8 -7 -17 -14 -21 -6 -3 -108 -6 -227 -6 -118 0 -215
-4 -215 -8 0 -5 -5 -5 -11 -1 -18 10 -229 10 -229 0 0 -6 -3 -6 -9 0 -6 5 -35
7 -65 6 -46 -3 -56 -7 -56 -22 0 -14 18 -24 78 -43 42 -14 165 -53 272 -87
276 -87 266 -82 249 -126 -8 -22 -17 -25 -414 -151 -175 -55 -180 -57 -183
-79 -3 -19 4 -19 402 -20 223 0 408 -3 411 -6 4 -3 7 -18 9 -32 1 -14 6 -29 9
-33 4 -3 7 -15 7 -25 0 -14 31 -152 85 -378 2 -8 4 -23 4 -32 1 -21 26 -24 37
-6 9 14 12 1482 4 1536 -4 29 -7 32 -22 20z"/>
<path d="M8100 12336 c-3 -2 -5 -351 -4 -775 1 -777 2 -817 34 -785 6 6 13 24
16 39 3 16 7 32 9 35 2 4 7 20 9 36 6 29 13 64 62 281 l28 121 42 4 c23 1 207
3 408 3 363 -1 367 0 364 20 -2 15 -21 26 -83 47 -44 15 -81 27 -83 27 -1 0
-67 21 -147 46 -80 25 -148 46 -152 47 -5 1 -30 10 -58 20 -27 10 -57 21 -66
24 -10 4 -14 14 -11 34 5 33 1 31 207 95 83 26 197 63 255 82 58 19 112 36
120 37 8 2 15 13 15 25 l0 23 -404 2 c-350 1 -405 3 -408 16 -3 8 -7 22 -9 30
-3 8 -5 16 -5 17 -1 2 -7 31 -16 65 -8 35 -17 72 -19 83 -3 11 -7 31 -10 45
-3 14 -9 41 -14 60 -9 34 -17 72 -25 115 -10 51 -23 80 -36 83 -8 1 -17 1 -19
-2z"/>
<path d="M2190 11083 c0 -6 -16 -39 -35 -72 -19 -34 -35 -65 -36 -69 -1 -4
-28 -62 -60 -130 -33 -68 -59 -125 -59 -128 0 -3 -11 -29 -24 -57 -33 -73
-155 -383 -160 -408 -2 -8 -8 -27 -15 -43 -14 -35 -108 -341 -115 -376 -3 -14
-14 -59 -25 -100 -11 -41 -22 -86 -24 -100 -3 -14 -10 -43 -15 -65 -6 -22 -14
-53 -16 -70 -3 -16 -8 -41 -11 -55 -2 -13 -7 -42 -11 -64 -3 -22 -8 -44 -10
-48 -3 -4 -7 -26 -9 -50 -3 -24 -7 -54 -9 -68 -2 -14 -7 -52 -11 -85 -4 -33
-9 -68 -11 -78 -2 -10 -6 -44 -9 -75 -3 -31 -8 -70 -10 -87 -6 -42 -18 -374
-18 -470 1 -175 18 -401 43 -545 5 -30 11 -75 14 -100 8 -59 15 -100 23 -125
3 -11 7 -29 9 -40 3 -28 11 -67 34 -170 11 -49 23 -101 25 -115 3 -14 10 -39
16 -56 5 -17 11 -40 14 -50 20 -90 149 -487 165 -509 4 -5 13 -28 20 -50 7
-22 19 -55 27 -72 7 -18 14 -36 15 -40 6 -28 144 -312 211 -433 111 -201 268
-433 412 -607 93 -113 307 -331 372 -380 20 -15 44 -35 53 -43 52 -51 379
-280 399 -280 5 0 11 -3 13 -7 10 -25 433 -230 588 -286 119 -44 248 -86 280
-92 8 -2 35 -8 59 -15 25 -6 56 -13 70 -15 14 -2 26 -4 26 -5 0 -2 19 -6 65
-14 19 -3 46 -8 60 -11 14 -3 45 -7 70 -10 25 -2 45 -5 45 -5 0 -1 21 -3 46
-4 25 -2 50 -5 55 -8 11 -6 383 -2 479 5 39 3 118 15 175 26 58 11 116 23 130
25 55 11 210 56 290 86 47 17 91 32 98 32 6 1 12 6 12 11 0 6 3 8 6 4 7 -7 96
31 105 45 4 6 6 19 4 28 -6 29 -16 93 -21 125 -11 80 -98 342 -151 454 -78
164 -144 261 -259 377 -159 161 -321 242 -599 299 -167 34 -452 112 -530 144
-11 5 -54 21 -95 37 -117 43 -385 176 -495 245 -92 58 -243 164 -255 179 -3 3
-14 13 -26 21 -101 68 -424 389 -569 564 -28 33 -57 67 -65 75 -20 20 -120
147 -150 190 -13 19 -27 37 -30 40 -3 3 -10 14 -17 25 -7 11 -41 67 -76 125
-104 170 -184 329 -264 525 -34 84 -124 335 -129 362 -2 12 -9 35 -15 50 -12
30 -56 188 -63 225 -2 13 -11 50 -19 83 -9 33 -19 76 -22 95 -3 19 -8 42 -10
50 -2 8 -6 32 -9 52 -3 21 -10 57 -15 80 -10 44 -21 122 -35 248 -3 25 -8 61
-12 82 -3 20 -7 65 -10 100 -2 34 -6 95 -9 133 -6 82 -7 555 -1 635 14 197 18
244 21 259 1 9 6 41 9 71 4 30 9 71 12 90 2 19 6 55 9 80 8 65 32 200 56 308
12 51 18 96 15 99 -3 4 -6 2 -6 -4z"/>
<path d="M13846 11056 c6 -38 9 -55 20 -98 6 -25 8 -39 18 -108 4 -25 11 -67
16 -95 5 -27 12 -68 14 -90 3 -22 7 -51 10 -65 2 -14 7 -54 11 -90 3 -36 8
-81 11 -100 2 -19 7 -55 10 -80 3 -25 8 -216 10 -425 3 -291 1 -381 -9 -387
-9 -6 -9 -8 1 -8 7 0 11 -3 8 -8 -2 -4 -7 -41 -11 -81 -4 -41 -8 -82 -10 -90
-2 -14 -11 -85 -20 -171 -2 -14 -10 -70 -19 -125 -22 -131 -24 -143 -46 -250
-21 -102 -25 -121 -40 -175 -7 -25 -14 -52 -15 -60 -1 -8 -5 -22 -8 -30 -11
-29 -39 -121 -42 -138 -2 -9 -4 -17 -5 -17 -1 0 -3 -7 -5 -15 -10 -41 -17 -62
-48 -150 -39 -109 -81 -215 -110 -280 -11 -25 -19 -45 -17 -45 1 0 -17 -37
-39 -82 -23 -45 -41 -84 -41 -86 0 -17 -222 -392 -240 -407 -4 -3 -21 -26 -38
-52 -18 -25 -38 -53 -44 -60 -7 -7 -33 -38 -58 -68 -24 -30 -52 -64 -62 -75
-10 -11 -27 -31 -39 -45 -103 -124 -352 -379 -464 -477 -104 -91 -289 -225
-413 -301 -117 -71 -380 -202 -405 -202 -7 0 -17 -4 -23 -9 -8 -8 -200 -79
-234 -86 -8 -2 -46 -14 -85 -26 -38 -12 -77 -23 -85 -24 -8 -1 -42 -10 -75
-20 -33 -10 -71 -19 -85 -21 -14 -2 -56 -10 -93 -18 -38 -9 -72 -15 -75 -14
-4 1 -14 -1 -22 -5 -8 -3 -50 -16 -93 -28 -43 -12 -80 -26 -83 -31 -3 -4 -13
-8 -23 -8 -9 0 -23 -6 -29 -12 -7 -7 -17 -13 -21 -13 -5 0 -44 -22 -87 -50
-126 -79 -285 -249 -364 -390 -49 -86 -136 -274 -137 -295 0 -3 -12 -42 -27
-87 -14 -46 -28 -94 -30 -108 -3 -13 -7 -29 -10 -34 -3 -5 -8 -26 -11 -47 -3
-22 -7 -50 -10 -64 -17 -78 -16 -95 4 -107 20 -13 179 -75 276 -108 46 -16
179 -52 215 -59 8 -1 40 -8 70 -14 30 -6 69 -14 85 -16 17 -3 44 -7 60 -10 90
-14 168 -19 335 -19 247 -1 361 9 585 52 66 13 273 69 294 80 9 5 18 9 21 8 7
-1 113 34 125 42 6 3 19 7 30 8 11 2 24 8 29 13 6 6 18 10 28 10 10 0 18 5 18
12 0 6 3 9 6 5 4 -3 28 5 55 19 27 13 50 24 51 23 7 -3 269 133 339 176 9 6
32 18 50 29 53 29 254 168 257 177 2 5 8 9 13 9 8 0 29 15 63 45 6 6 31 26 56
45 54 43 152 133 238 220 346 349 639 815 847 1345 52 134 58 149 59 155 1 3
9 25 18 50 15 40 105 331 114 370 2 8 10 40 19 70 8 30 17 67 20 82 3 16 12
56 20 90 8 35 17 79 20 98 3 19 12 67 20 105 12 63 19 108 30 185 3 25 13 94
20 140 15 100 27 288 27 426 -1 111 -11 383 -16 439 -14 130 -17 163 -21 185
-3 14 -7 50 -10 80 -6 62 -9 81 -31 200 -9 47 -17 96 -19 110 -2 14 -20 97
-40 185 -21 88 -38 165 -40 170 -1 6 -4 17 -7 25 -9 25 -31 104 -33 120 -1 8
-5 22 -8 30 -3 8 -24 74 -47 145 -57 177 -131 375 -197 525 -30 69 -55 130
-57 135 -1 6 -41 89 -89 185 -63 129 -84 165 -81 136z"/>
</g>
</svg>
